<?xml version="1.0" encoding="UTF-8" standalone="no"?>
<svg xmlns:sketch="http://www.bohemiancoding.com/sketch/ns" xmlns="http://www.w3.org/2000/svg" height="500px" width="500px" version="1.1" xmlns:xlink="http://www.w3.org/1999/xlink" viewBox="0 0 500 500">
 <g id="Page-1" fill-rule="evenodd" sketch:type="MSPage" fill="none">
  <g id="Artboard-1" fill="#fff" sketch:type="MSArtboardGroup">
   <path id="Path" sketch:type="MSShapeGroup" d="m255.94 147.25c0.56-5.1 0.85-10.14 0.85-15.15 0-4.53-0.35-8.99-1.06-13.36-0.7-4.38-1.91-8.29-3.64-11.75-1.73-3.45-4.11-6.24-7.13-8.341-3.02-2.106-6.86-3.159-11.5-3.159-6.81 0-13.5 2.052-20.09 6.16-6.59 4.1-12.91 9.74-18.96 16.93-6.05 7.18-11.83 15.6-17.33 25.27-5.51 9.67-10.62 20.06-15.31 31.19-4.7 11.12-8.91 22.73-12.64 34.83s-6.94 24.14-9.64 36.13-4.75 23.63-6.16 34.91c-1.4 11.29-2.1 21.74-2.1 31.35 0 12.53 1.05 24.49 3.16 35.89 2.1 11.39 5.02 21.41 8.74 30.05 3.73 8.64 8.11 15.53 13.13 20.66s10.45 7.69 16.28 7.69c3.67 0 7.61-0.51 11.83-1.54 4.21-1.02 8.53-2.4 12.96-4.13s8.83-3.7 13.2-5.91c4.23-2.14 8.33-4.31 12.3-6.5 0.11 0.21 0.22 0.36 0.32 0.43 0.73 0.52 24.02 16.4 47.4 17.02 24.29 0.65 48.72-13.99 49.66-14.92 7.56-1.73 14.72-3.67 21.47-5.83s13.23-4.73 19.44-7.7 12.26-6.45 18.14-10.45c5.89-4 11.8-8.69 17.74-14.09l-12.47-26.74c-4.32 4.32-8.53 8.08-12.64 11.26-4.1 3.19-8.18 6.08-12.23 8.67s-8.07 4.97-12.07 7.13-7.94 4.37-11.83 6.64c3.24-4.97 5.86-9.77 7.86-14.42 2-4.64 3.57-9.31 4.7-14.01s1.92-9.51 2.35-14.42 0.65-10.13 0.65-15.63c0-6.59-0.92-12.91-2.76-18.96-1.83-6.05-4.48-11.39-7.94-16.04-3.45-4.64-7.66-8.37-12.63-11.18s-10.64-4.21-17.01-4.21c-4.97 0-9.97 2.3-14.99 6.89s-10.56 10.66-16.61 18.22l-2.59-1.78c7.56-9.18 15.15-18.95 22.76-29.32 7.62-10.37 14.5-20.98 20.66-31.84 6.16-10.85 11.15-21.74 14.99-32.64 3.83-10.91 5.75-21.5 5.75-31.76 0-7.34-0.43-14.26-1.3-20.74-0.86-6.48-2.64-12.12-5.34-16.93-2.7-4.8-6.54-8.61-11.51-11.418s-11.55-4.212-19.76-4.212c-7.35 0-14.18 2.97-20.5 8.91s-12.15 13.83-17.49 23.65c-3.21 5.91-6.25 12.3-9.11 19.2zm-17.41 61.23c-2.56 6.13-5.34 12.26-8.31 18.4-5.19 10.69-10.59 21.31-16.2 31.84-5.62 10.53-11.26 20.9-16.94 31.1-5.67 10.21-10.98 20.17-15.95 29.89-0.54 1.08-1.11 2.49-1.7 4.22-0.6 1.72-1.17 3.59-1.71 5.59-0.54 1.99-1.08 4.13-1.62 6.39-0.54 2.27-0.97 4.49-1.29 6.65v2.27c0 2.8 0.3 5.53 0.89 8.18 0.59 2.64 1.32 5.02 2.19 7.13 0.86 2.1 1.78 3.78 2.75 5.02s1.89 1.86 2.75 1.86c2.06 0 4.41-0.43 7.05-1.29 2.65-0.87 5.46-2.03 8.43-3.49s6.02-3.13 9.15-5.02 6.16-3.81 9.07-5.75c1.11-0.74 2.23-1.5 3.36-2.28 0.72-8.29 1.68-17.9 2.88-28.83 2.16-20.41 4.21-35.37 6.15-44.88 0.98-10.69 2.27-22.52 3.89-35.48 1.13-8.64 2.85-19.15 5.16-31.52zm-265.53-235.48h553v553h-553v-553zm199.7 303.94c4.86-8.64 10.02-18.36 15.47-29.16 5.46-10.8 10.62-21.93 15.48-33.37 4.86-11.45 9.07-22.87 12.63-34.27 3.57-11.39 5.84-22.01 6.81-31.83 0-3.14-0.08-5.81-0.25-8.02-0.16-2.22-0.67-3.33-1.53-3.33-3.14 0-6.51 2.03-10.13 6.08s-7.24 9.53-10.85 16.44c-3.62 6.92-7.08 14.96-10.37 24.14-3.3 9.18-6.24 18.96-8.83 29.33-2.6 10.37-4.65 21.03-6.16 32-1.51 10.96-2.27 21.62-2.27 31.99zm109.92 13.37c-3.78 1.56-7.29 3.99-10.53 7.29-3.24 3.29-6.1 7.53-8.58 12.72-4.86 10.04-6.32 25.16-7.94 37.91-0.65 4.86-1.19 9.18-1.62 12.96-0.43 4.32-0.81 8.37-1.14 12.15 3.57 1.08 7.13 2 10.7 2.75 1.58 0.33 8.8 1.67 15.58 0.86 6.59-0.78 12.73-3.68 14.23-4.74 3.02-2.16 5.72-5.05 8.1-8.67 2.37-3.62 4.43-7.75 6.15-12.4 1.73-4.64 3.14-9.47 4.22-14.5 1.08-5.02 1.89-9.99 2.43-14.9 0.54-4.92 0.81-9.42 0.81-13.53 0-2.7-0.3-5.26-0.89-7.69-0.6-2.43-1.68-4.57-3.25-6.4-1.56-1.84-3.72-3.33-6.48-4.46-2.75-1.13-6.23-1.7-10.45-1.7-3.78 0-7.56 0.78-11.34 2.35zm27.22-150.75c0-0.44-0.08-1.35-0.24-2.76-0.16-1.4-0.54-2.86-1.14-4.37-0.59-1.51-1.43-2.86-2.51-4.05s-2.53-1.78-4.37-1.78c-2.16 0-4.4 1.53-6.72 4.61-2.33 3.08-4.62 7.24-6.89 12.48s-4.48 11.28-6.64 18.14-4.27 14.04-6.32 21.55-3.97 15.15-5.75 22.93c-1.78 7.77-3.4 15.14-4.86 22.11s-2.73 13.34-3.81 19.12-1.94 10.45-2.59 14.01c2.91-5.61 6.18-11.45 9.8-17.5 3.62-6.04 7.26-12.34 10.94-18.87 3.67-6.53 7.26-13.23 10.77-20.09s6.7-13.88 9.56-21.06 5.24-14.47 7.13-21.87 3.1-14.93 3.64-22.6z"/>
  </g>
 </g>
</svg>
